# xmcd
#
# Track frame offsets: 
#        150
#        14560
#        29750
#        49565
#        66545
#        83776
#        99607
#        109761
#        121510
#        134708
#        147160
#        164621
#
# Disc length: 2300 seconds
#
# Revision: 0
# Processed by: cddbd v1.5.2PL0 Copyright (c) Steve Scherf et al.
# Submitted via: ExactAudioCopy v1.3
#
DISCID=ad08fa0c
DTITLE=Barry Goldberg - In the Groove
DYEAR=2018
DGENRE=Blues
TTITLE0=Guess I Had Enough of You
TTITLE1=Mighty Mezz
TTITLE2=Westside Girl
TTITLE3=In the Groove
TTITLE4=Mighty Low
TTITLE5=Dumplin's
TTITLE6=Bullwhip Rock
TTITLE7=Lazy
TTITLE8=Tall Cool One
TTITLE9=Slow Walk
TTITLE10=Ghosts in My Basement
TTITLE11=Alberta
EXTD=
EXTT0=
EXTT1=
EXTT2=
EXTT3=
EXTT4=
EXTT5=
EXTT6=
EXTT7=
EXTT8=
EXTT9=
EXTT10=
EXTT11=
PLAYORDER=
